<?xml version="1.0" standalone="no"?>
<!DOCTYPE svg PUBLIC "-//W3C//DTD SVG 20010904//EN"
 "http://www.w3.org/TR/2001/REC-SVG-20010904/DTD/svg10.dtd">
<svg version="1.0" xmlns="http://www.w3.org/2000/svg"
 width="100.000000pt" height="100.000000pt" viewBox="0 0 1152.000000 1152.000000"
 preserveAspectRatio="xMidYMid meet">

<g transform="translate(0.000000,1152.000000) scale(0.100000,-0.100000)"
fill="#000000" stroke="none">
<path d="M7907 10216 c-96 -14 -141 -26 -147 -36 -7 -13 -48 -149 -230 -755
-58 -194 -241 -795 -302 -995 -42 -138 -128 -424 -183 -610 -7 -25 -32 -105
-54 -179 -23 -74 -41 -137 -41 -140 0 -3 21 -17 46 -30 54 -29 50 -33 95 94
17 49 97 268 176 485 80 217 187 510 238 650 130 356 532 1454 554 1513 8 20
8 27 -2 26 -6 -1 -74 -11 -150 -23z"/>
<path d="M7350 10051 l-125 -57 -51 -265 c-29 -145 -75 -385 -104 -534 -61
-318 -131 -681 -165 -850 -13 -66 -40 -208 -61 -315 -20 -107 -49 -256 -64
-330 -15 -74 -24 -138 -21 -141 3 -4 25 -10 48 -14 50 -8 26 -84 188 580 69
281 170 692 225 915 229 932 261 1063 258 1065 -2 2 -59 -23 -128 -54z"/>
<path d="M6880 9764 c-111 -88 -98 -48 -129 -389 -32 -340 -80 -840 -91 -945
-12 -114 -68 -688 -75 -780 -4 -36 -8 -75 -11 -87 -5 -26 3 -28 56 -13 l35 10
33 232 c18 128 44 312 58 408 14 96 50 344 80 550 30 206 61 422 69 480 8 58
30 212 50 343 38 256 39 267 28 266 -5 0 -51 -34 -103 -75z"/>
<path d="M9599 9183 c-371 -407 -554 -608 -705 -774 -77 -85 -207 -228 -289
-319 -81 -91 -176 -194 -209 -230 -34 -36 -124 -135 -201 -220 -77 -85 -161
-177 -186 -205 -81 -88 -453 -497 -486 -536 -18 -20 -33 -43 -33 -51 0 -21 57
-163 65 -161 7 1 133 112 765 672 201 178 452 401 559 495 107 94 263 232 346
306 84 74 258 228 386 341 496 439 564 500 563 513 -1 10 -203 264 -309 389
l-32 38 -234 -258z"/>
<path d="M5942 8610 l-53 -99 36 -208 c177 -1022 188 -1083 194 -1083 3 0 19
16 34 35 l28 35 -46 363 c-25 199 -57 450 -71 557 -14 107 -34 262 -44 344
-10 81 -21 150 -23 152 -2 2 -27 -41 -55 -96z"/>
<path d="M10209 8266 c-156 -107 -376 -258 -489 -335 -113 -77 -331 -226 -485
-332 -154 -105 -334 -228 -400 -274 -66 -45 -205 -140 -310 -212 -104 -71
-350 -239 -545 -372 -195 -134 -359 -247 -364 -251 -7 -7 28 -196 39 -208 1
-1 461 226 1021 504 560 278 1259 625 1553 770 434 216 532 268 529 282 -8 27
-250 606 -257 615 -4 4 -135 -81 -292 -187z"/>
<path d="M5741 8194 l-41 -95 66 -232 c60 -212 170 -604 211 -752 9 -33 18
-64 21 -68 6 -12 51 64 52 88 0 11 -20 108 -45 215 -43 190 -171 758 -196 873
-7 32 -16 60 -20 62 -3 3 -25 -38 -48 -91z"/>
<path d="M8071 7893 c-13 -36 -61 -164 -107 -282 l-83 -216 66 70 c152 164
166 183 235 334 l67 146 -47 7 c-106 15 -104 15 -131 -59z"/>
<path d="M7403 7678 l-41 -43 -11 -170 c-12 -172 -36 -545 -48 -733 -5 -92 -4
-102 10 -96 21 8 19 -10 77 534 27 256 52 484 55 508 4 23 5 42 3 42 -2 0 -22
-19 -45 -42z"/>
<path d="M7231 7499 l-33 -40 8 -435 c8 -402 10 -434 26 -422 14 12 17 64 25
473 6 253 9 461 9 462 -1 1 -16 -16 -35 -38z"/>
<path d="M7089 7297 l-25 -47 17 -142 c9 -79 21 -192 28 -253 33 -325 33 -326
48 -313 12 9 13 28 9 87 -3 42 -13 186 -21 321 -9 135 -19 278 -23 319 l-7 74
-26 -46z"/>
<path d="M8119 7097 c-212 -184 -235 -208 -273 -279 -21 -40 -47 -88 -59 -107
-24 -39 -23 -39 80 32 55 38 82 66 114 116 23 36 71 110 105 164 35 53 63 97
61 97 -1 0 -14 -10 -28 -23z"/>
<path d="M5376 6982 c-9 -48 -16 -93 -16 -101 0 -7 33 -52 73 -98 39 -47 127
-151 195 -232 67 -80 127 -147 131 -149 5 -2 15 21 21 51 l13 55 -95 133 c-52
74 -138 198 -192 276 -53 78 -101 145 -105 148 -5 3 -16 -34 -25 -83z"/>
<path d="M6821 6697 c-6 -16 -11 -38 -11 -50 0 -24 161 -387 171 -387 22 0 7
58 -62 240 -43 113 -80 210 -82 215 -3 6 -10 -3 -16 -18z"/>
<path d="M7636 6669 c-51 -46 -75 -96 -50 -106 9 -3 24 3 34 13 18 19 73 134
64 134 -2 0 -24 -18 -48 -41z"/>
<path d="M5317 6628 c-4 -24 -9 -68 -13 -98 l-6 -56 134 -99 c73 -55 166 -125
207 -158 82 -63 85 -63 95 13 l7 45 -202 195 c-111 107 -205 196 -209 198 -4
2 -10 -16 -13 -40z"/>
<path d="M9325 6625 c-16 -7 -106 -48 -200 -90 -93 -42 -190 -86 -215 -97 -25
-11 -79 -36 -120 -55 -41 -19 -149 -68 -240 -108 -91 -40 -199 -88 -240 -107
-41 -20 -118 -54 -170 -78 -52 -23 -133 -60 -178 -81 -46 -22 -88 -39 -93 -39
-11 0 -12 -34 -3 -79 5 -24 11 -31 23 -26 20 8 247 69 441 119 80 21 159 42
175 47 17 5 98 27 180 49 357 95 750 202 753 204 1 2 -4 30 -12 62 -8 32 -26
112 -41 177 -14 64 -27 117 -28 116 -1 0 -15 -7 -32 -14z"/>
<path d="M6763 6481 c-10 -36 -8 -44 21 -90 96 -156 152 -241 157 -241 27 0 7
55 -70 198 -48 89 -90 164 -93 167 -3 3 -10 -12 -15 -34z"/>
<path d="M1058 6055 c-81 -45 -54 -165 37 -165 25 0 44 8 60 25 68 67 -15 185
-97 140z m83 -36 c27 -27 21 -66 -12 -92 -32 -23 -62 -16 -85 18 -41 62 44
127 97 74z"/>
<path d="M1754 6060 c-56 -22 -72 -103 -29 -145 53 -54 145 -12 145 66 0 31
-18 57 -50 74 -33 17 -36 17 -66 5z m68 -37 c26 -23 24 -78 -4 -97 -32 -23
-54 -20 -78 11 -22 28 -21 63 2 90 15 18 58 16 80 -4z"/>
<path d="M2340 5983 c0 -76 3 -93 15 -93 12 0 15 13 15 57 l0 57 60 -59 60
-59 0 87 c0 51 -4 87 -10 87 -5 0 -10 -25 -10 -55 0 -30 -2 -55 -5 -55 -3 0
-32 28 -65 63 l-59 62 -1 -92z"/>
<path d="M3372 6054 c-33 -23 -28 -51 14 -76 25 -14 34 -27 32 -41 -4 -27 -22
-32 -42 -11 -20 20 -35 10 -20 -14 15 -23 58 -27 78 -7 28 28 20 63 -19 86
-45 27 -48 54 -5 46 34 -7 40 7 11 23 -25 13 -22 13 -49 -6z"/>
<path d="M4238 6055 c-29 -16 -53 -73 -43 -105 9 -29 54 -60 87 -60 35 0 88
48 88 80 0 33 -26 75 -55 88 -33 15 -44 15 -77 -3z m84 -32 c37 -34 8 -113
-42 -113 -28 0 -60 35 -60 67 0 55 61 83 102 46z"/>
<path d="M4806 6051 c-24 -27 -17 -52 21 -76 18 -11 32 -27 33 -36 0 -24 -32
-34 -47 -14 -6 10 -17 14 -23 10 -17 -10 18 -45 45 -45 12 0 30 9 40 20 25 28
13 62 -30 83 -43 21 -41 43 4 41 35 -2 41 10 12 26 -27 14 -35 13 -55 -9z"/>
<path d="M5023 6050 c-76 -46 -41 -165 46 -158 19 2 36 9 39 16 3 9 -3 11 -22
6 -40 -10 -76 18 -76 60 0 44 29 71 70 63 36 -8 43 17 8 27 -31 8 -29 8 -65
-14z"/>
<path d="M5540 5982 c0 -71 3 -93 13 -90 7 3 13 26 15 58 l3 53 60 -59 59 -58
0 87 c0 71 -3 87 -15 87 -12 0 -15 -13 -15 -57 l0 -58 -60 65 -59 65 -1 -93z"/>
<path d="M5845 6058 c-61 -33 -71 -93 -25 -139 23 -24 37 -30 62 -27 22 2 34
9 36 21 3 16 1 17 -17 5 -33 -20 -75 7 -79 51 -5 47 22 75 65 68 39 -7 47 17
11 27 -29 7 -29 7 -53 -6z"/>
<path d="M840 6050 c0 -5 9 -10 20 -10 18 0 20 -7 20 -76 0 -56 3 -75 13 -72
8 3 13 30 15 76 2 55 6 72 17 72 8 0 15 5 15 10 0 6 -22 10 -50 10 -27 0 -50
-4 -50 -10z"/>
<path d="M1290 5975 c0 -50 4 -85 10 -85 6 0 10 16 10 35 0 44 11 44 41 0 13
-19 30 -35 37 -35 18 0 15 8 -18 50 -16 21 -30 40 -30 44 0 3 14 21 31 41 39
44 17 47 -28 3 l-33 -32 0 32 c0 18 -4 32 -10 32 -6 0 -10 -35 -10 -85z"/>
<path d="M1505 6018 c14 -24 25 -55 25 -70 0 -14 3 -33 6 -42 11 -29 24 -17
24 22 0 22 10 53 25 77 28 46 30 55 11 55 -7 0 -19 -13 -26 -30 -7 -16 -15
-30 -19 -30 -4 0 -15 14 -24 30 -10 17 -24 30 -32 30 -10 0 -7 -11 10 -42z"/>
<path d="M2110 5997 c0 -75 18 -107 59 -107 45 0 61 27 61 103 0 38 -4 67 -10
67 -6 0 -10 -26 -10 -59 0 -41 -5 -65 -16 -75 -36 -36 -64 -4 -64 75 0 33 -4
59 -10 59 -6 0 -10 -28 -10 -63z"/>
<path d="M2600 5975 c0 -50 4 -85 10 -85 6 0 10 35 10 85 0 50 -4 85 -10 85
-6 0 -10 -35 -10 -85z"/>
<path d="M2724 6043 c22 -60 62 -153 66 -153 3 0 17 30 32 68 42 102 42 102
26 102 -8 0 -22 -22 -32 -50 -10 -27 -22 -50 -26 -50 -4 0 -16 23 -26 50 -10
28 -24 50 -32 50 -9 0 -12 -6 -8 -17z"/>
<path d="M2952 5978 l3 -83 43 0 c50 0 62 19 15 23 -27 3 -33 8 -33 27 0 19 6
24 33 27 39 4 39 23 0 23 -21 1 -29 6 -31 23 -3 19 1 22 32 22 20 0 36 5 36
10 0 6 -23 10 -50 10 l-51 0 3 -82z"/>
<path d="M3150 5974 c0 -64 3 -85 13 -81 6 2 12 16 12 30 -1 35 4 34 37 -5 33
-41 50 -29 18 13 -20 29 -21 33 -6 41 19 11 21 59 4 76 -7 7 -27 12 -45 12
l-33 0 0 -86z m60 56 c11 -7 12 -14 4 -27 -18 -30 -34 -27 -34 6 0 33 6 37 30
21z"/>
<path d="M3550 5974 c0 -64 3 -85 13 -82 8 3 13 32 15 86 2 68 0 82 -13 82
-12 0 -15 -15 -15 -86z"/>
<path d="M3670 6051 c0 -5 9 -11 21 -14 11 -3 19 -11 18 -19 -1 -7 -1 -39 0
-70 2 -84 21 -72 21 13 0 62 2 71 20 76 37 10 20 23 -30 23 -27 0 -50 -4 -50
-9z"/>
<path d="M3871 6008 c16 -29 29 -68 29 -85 0 -18 5 -33 10 -33 6 0 10 17 10
38 0 21 11 56 25 81 29 50 29 51 11 51 -7 0 -19 -13 -26 -30 -15 -37 -21 -37
-42 0 -9 17 -24 30 -32 30 -11 0 -7 -13 15 -52z"/>
<path d="M4470 5975 c0 -50 4 -85 10 -85 6 0 10 18 10 40 0 38 2 40 30 40 28
0 44 19 18 21 -7 1 -20 2 -28 3 -8 0 -15 10 -15 21 0 14 8 21 28 23 42 5 32
22 -13 22 l-40 0 0 -85z"/>
<path d="M5210 5974 c0 -64 3 -85 13 -82 8 3 13 32 15 86 2 68 0 82 -13 82
-12 0 -15 -15 -15 -86z"/>
<path d="M5350 5975 l0 -85 45 0 c33 0 45 4 45 15 0 10 -11 15 -35 15 -30 0
-35 3 -35 24 0 21 6 25 33 28 17 2 31 8 29 13 -2 10 -8 11 -44 14 -11 1 -18 9
-18 21 0 16 7 20 35 20 19 0 35 5 35 10 0 6 -20 10 -45 10 l-45 0 0 -85z"/>
<path d="M6022 5978 l3 -83 43 0 c50 0 62 19 15 23 -27 3 -33 7 -33 28 0 20 5
24 30 24 21 0 30 5 30 16 0 11 -8 15 -27 12 -23 -2 -29 1 -31 20 -3 19 1 22
32 22 20 0 36 5 36 10 0 6 -23 10 -50 10 l-51 0 3 -82z"/>
<path d="M9405 5884 c-11 -2 -222 -22 -470 -44 -556 -50 -516 -46 -660 -60
-66 -6 -181 -17 -255 -23 l-135 -12 0 -55 0 -55 85 -7 c308 -27 702 -60 860
-73 102 -9 286 -25 410 -35 124 -11 228 -20 233 -20 4 0 7 88 7 195 l0 195
-27 -1 c-16 -1 -37 -3 -48 -5z"/>
<path d="M1912 5640 c-70 -147 -70 -150 -46 -150 19 0 28 8 40 35 14 35 15 35
78 35 l65 0 12 -35 c10 -26 19 -35 36 -35 13 0 23 3 23 6 0 10 -121 277 -129
287 -4 4 -39 -60 -79 -143z m98 2 c15 -40 12 -44 -33 -40 l-34 3 19 44 c20 47
27 46 48 -7z"/>
<path d="M2520 5643 c0 -146 1 -153 20 -153 19 0 20 7 20 95 0 52 3 95 8 95 4
0 49 -45 100 -100 52 -55 98 -100 103 -100 6 0 8 59 7 148 -3 144 -3 147 -25
150 -23 3 -23 1 -23 -99 l0 -102 -105 109 -104 109 -1 -152z"/>
<path d="M3294 5779 c-18 -5 -48 -27 -68 -49 -31 -35 -36 -46 -36 -91 0 -67
27 -111 85 -139 75 -36 161 -6 200 71 58 111 -59 245 -181 208z m109 -59 c38
-30 52 -80 34 -123 -19 -45 -52 -67 -102 -67 -32 0 -47 6 -67 28 -47 50 -48
106 -2 155 32 34 98 38 137 7z"/>
<path d="M4360 5781 c-70 -22 -112 -76 -112 -145 0 -77 48 -135 124 -151 43
-10 95 11 101 41 4 20 1 24 -12 18 -27 -12 -79 -17 -106 -10 -31 8 -65 60 -65
101 0 31 20 70 48 93 19 15 86 16 113 2 16 -9 19 -7 19 14 0 18 -8 27 -31 35
-36 12 -43 12 -79 2z"/>
<path d="M6037 5776 c-68 -25 -99 -69 -99 -141 0 -102 95 -175 187 -145 27 9
35 17 35 36 0 21 -3 23 -19 14 -11 -5 -38 -10 -61 -10 -61 0 -100 41 -100 105
0 64 39 105 100 105 23 0 50 -5 61 -10 16 -9 19 -7 19 14 0 18 -8 27 -31 35
-39 14 -45 13 -92 -3z"/>
<path d="M840 5635 c0 -138 1 -145 20 -145 18 0 20 7 20 54 0 56 8 66 51 66
28 0 69 44 69 74 0 64 -38 96 -115 96 l-45 0 0 -145z m104 89 c33 -32 13 -74
-36 -74 -27 0 -28 2 -28 45 0 41 2 45 24 45 14 0 32 -7 40 -16z"/>
<path d="M1400 5635 l0 -145 25 0 25 0 0 145 0 145 -25 0 -25 0 0 -145z"/>
<path d="M4890 5635 c0 -138 1 -145 20 -145 19 0 20 7 20 145 0 138 -1 145
-20 145 -19 0 -20 -7 -20 -145z"/>
<path d="M5360 5636 c0 -139 1 -146 20 -146 18 0 20 7 20 55 0 30 4 55 9 55 5
0 26 -25 46 -55 28 -40 45 -55 62 -55 12 0 23 3 23 7 0 3 -18 30 -39 58 l-40
52 30 22 c23 17 29 29 29 60 0 61 -25 84 -99 89 l-61 4 0 -146z m101 94 c21
-12 25 -50 7 -68 -7 -7 -25 -12 -40 -12 -27 0 -28 2 -28 45 0 39 3 45 21 45
11 0 29 -5 40 -10z"/>
<path d="M6579 5693 c0 -49 -1 -114 -2 -146 l-2 -57 68 0 c60 0 68 2 65 18 -2
12 -15 18 -46 20 l-42 3 0 125 c0 117 -1 124 -20 124 -18 0 -20 -7 -21 -87z"/>
<path d="M7110 5635 l0 -145 81 0 c71 0 80 2 77 18 -2 13 -15 18 -61 20 l-57
3 0 49 0 50 55 0 c48 0 55 2 55 20 0 18 -7 20 -55 20 l-55 0 0 35 0 34 58 3
c43 2 57 7 57 18 0 12 -17 16 -77 18 l-78 3 0 -146z"/>
<path d="M7866 5463 c-3 -26 -3 -50 1 -54 7 -7 304 -141 463 -209 36 -15 94
-41 130 -58 36 -16 88 -40 115 -52 28 -12 100 -45 160 -72 61 -28 124 -56 140
-63 17 -7 71 -31 120 -53 50 -22 151 -67 225 -100 74 -34 137 -59 139 -56 6 6
80 348 76 353 -2 2 -104 29 -227 61 -123 31 -326 85 -453 119 -126 34 -297 80
-380 101 -82 22 -226 60 -320 85 -93 25 -173 45 -176 45 -4 0 -9 -21 -13 -47z"/>
<path d="M5483 5202 l-212 -106 6 -80 c3 -45 9 -88 12 -97 5 -13 48 12 213
125 l207 141 0 45 c-1 87 7 88 -226 -28z"/>
<path d="M6906 5172 c-16 -26 -58 -91 -92 -144 l-63 -97 12 -42 12 -42 91 168
c57 103 90 175 87 186 -8 28 -15 23 -47 -29z"/>
<path d="M7666 5133 c-7 -32 -26 -162 -26 -179 0 -7 46 -38 103 -69 139 -79
820 -464 1047 -593 102 -57 257 -145 345 -195 200 -113 405 -229 602 -340 83
-48 173 -99 200 -113 26 -15 181 -102 343 -194 387 -220 391 -222 395 -218 6
6 215 672 215 685 0 8 -8 16 -17 20 -10 3 -67 25 -128 48 -60 24 -213 82 -340
130 -126 49 -300 115 -385 147 -85 33 -254 97 -375 143 -121 46 -332 127 -470
180 -137 53 -367 141 -510 195 -246 94 -398 152 -790 303 -93 36 -177 69 -187
72 -12 5 -18 -1 -22 -22z"/>
<path d="M6936 5022 c-22 -48 -59 -129 -83 -181 -45 -99 -50 -122 -32 -168 8
-20 13 -24 17 -13 3 8 9 26 15 40 109 268 154 410 128 410 -3 0 -24 -40 -45
-88z"/>
<path d="M5673 5018 c-301 -261 -363 -320 -358 -341 2 -12 9 -55 15 -94 7 -40
15 -73 18 -72 4 0 36 33 72 74 36 40 125 139 199 219 l133 147 -7 55 c-3 29
-10 54 -15 54 -5 0 -30 -19 -57 -42z"/>
<path d="M7131 4723 c-7 -65 -23 -217 -37 -338 -29 -269 -29 -269 -2 -314 l23
-36 7 55 c4 30 17 205 28 389 19 291 20 336 7 348 -13 13 -16 0 -26 -104z"/>
<path d="M7600 4821 c0 -5 7 -11 14 -14 10 -4 13 -1 9 9 -6 15 -23 19 -23 5z"/>
<path d="M7734 4762 c31 -58 51 -81 119 -134 45 -36 88 -68 95 -72 7 -4 -13
32 -44 81 -31 48 -62 97 -69 108 -7 11 -41 35 -75 54 l-63 34 37 -71z"/>
<path d="M7216 4689 c-3 -52 -8 -247 -11 -434 l-6 -340 32 -42 c18 -23 34 -41
36 -40 1 2 -2 210 -8 463 -8 351 -14 462 -24 473 -11 11 -14 -3 -19 -80z"/>
<path d="M7300 4703 c1 -63 28 -394 32 -399 3 -2 13 14 23 36 17 39 18 46 1
178 -9 75 -16 151 -16 168 0 29 -15 54 -32 54 -4 0 -8 -17 -8 -37z"/>
<path d="M7561 4663 c-13 -43 -26 -85 -28 -93 -3 -10 116 -130 324 -330 180
-173 456 -439 613 -590 157 -151 455 -437 661 -635 725 -698 834 -803 874
-844 21 -23 44 -41 50 -41 8 0 112 155 318 471 l18 27 -108 83 c-59 45 -197
151 -307 234 -307 231 -594 448 -776 586 -91 69 -361 273 -600 454 -239 181
-500 378 -580 439 -354 268 -419 316 -427 316 -4 0 -19 -35 -32 -77z"/>
<path d="M5926 4385 c-56 -144 -319 -862 -323 -882 -5 -21 56 -213 67 -213 3
0 70 215 148 478 79 262 148 490 153 505 11 36 -32 145 -45 112z"/>
<path d="M7414 4307 l-37 -74 79 -114 c43 -63 141 -204 218 -314 77 -110 190
-272 251 -360 127 -183 482 -693 540 -775 50 -71 146 -210 390 -560 364 -522
457 -655 469 -667 8 -9 53 21 193 134 l181 147 -58 70 c-58 70 -121 145 -480
571 -286 339 -434 514 -565 670 -132 157 -280 332 -705 835 -156 184 -315 374
-354 422 -39 47 -74 87 -79 87 -4 1 -24 -32 -43 -72z"/>
<path d="M6027 4183 c-7 -25 -52 -209 -77 -318 -12 -49 -60 -243 -106 -430
-46 -187 -84 -348 -84 -357 0 -20 80 -198 89 -198 3 0 30 127 60 283 29 155
82 433 118 617 64 331 65 335 47 368 -24 45 -41 58 -47 35z"/>
<path d="M7803 4190 c69 -193 87 -224 193 -350 58 -69 114 -134 125 -145 11
-11 -10 46 -49 130 -38 83 -72 159 -76 170 -3 11 -49 63 -102 115 -53 52 -94
88 -91 80z"/>
<path d="M7333 4157 c3 -8 11 -107 18 -221 l13 -207 40 -36 c25 -23 41 -32 44
-24 2 7 -1 47 -6 89 -6 42 -16 129 -23 192 -10 105 -14 119 -46 168 -34 50
-51 66 -40 39z"/>
<path d="M6137 3913 c-9 -65 -48 -336 -87 -603 -39 -267 -76 -523 -82 -570
l-10 -85 58 -99 c32 -55 59 -95 61 -90 2 8 16 147 78 794 9 85 27 267 40 404
14 138 25 262 25 277 0 26 -42 89 -59 89 -5 0 -15 -53 -24 -117z"/>
<path d="M6853 3768 c-18 -6 -33 -16 -33 -23 0 -11 13 -71 186 -835 47 -206
98 -436 114 -510 16 -74 70 -315 120 -535 49 -220 102 -453 117 -517 l26 -117
131 -49 c72 -27 132 -48 134 -46 4 2 -4 29 -94 354 -30 107 -68 242 -84 300
-16 58 -53 193 -83 300 -31 107 -103 366 -161 575 -324 1159 -310 1110 -326
1112 -8 0 -30 -4 -47 -9z"/>
<path d="M6630 3748 c0 -1 21 -165 46 -363 25 -198 49 -396 54 -440 5 -44 29
-240 54 -435 72 -559 126 -989 126 -994 0 -3 50 -39 110 -80 83 -56 110 -70
110 -57 0 21 -26 174 -115 681 -194 1103 -285 1631 -285 1649 0 11 -3 22 -7
24 -11 6 -93 20 -93 15z"/>
<path d="M8362 3598 c34 -62 62 -114 63 -116 3 -3 65 26 74 35 6 4 -180 193
-190 193 -4 0 20 -51 53 -112z"/>
</g>
</svg>
