<svg width="300" height="28" viewBox="0 0 300 28" fill="none" xmlns="http://www.w3.org/2000/svg">
<path d="M10.162 0.932312C6.38625 3.02997 7.64484 8.62372 11.8868 8.62372C13.0521 8.62372 13.9378 8.2508 14.6836 7.45835C17.8534 4.33518 13.9844 -1.16534 10.162 0.932312ZM14.031 2.61044C15.2896 3.86903 15.0099 5.687 13.4717 6.89898C11.98 7.97111 10.5816 7.64481 9.50943 6.05992C7.59823 3.16981 11.5605 0.139864 14.031 2.61044Z" fill="black"/>
<path d="M42.6057 0.699192C39.9953 1.72471 39.2494 5.5005 41.2539 7.45831C43.7244 9.9755 48.013 8.01768 48.013 4.38175C48.013 2.93669 47.1739 1.72471 45.6823 0.932265C44.144 0.139817 44.0041 0.139817 42.6057 0.699192ZM45.7755 2.42393C46.9875 3.49607 46.8942 6.05987 45.589 6.94555C44.0974 8.01768 43.0718 7.87784 41.9531 6.43279C40.9276 5.12758 40.9742 3.49607 42.0463 2.23747C42.7455 1.39841 44.75 1.49164 45.7755 2.42393Z" fill="black"/>
<path d="M69.9219 4.28854C69.9219 7.83124 70.0617 8.62369 70.6211 8.62369C71.1805 8.62369 71.3203 8.0177 71.3203 5.96666V3.30963L74.1172 6.05989L76.9141 8.81015V4.75468C76.9141 2.37734 76.7276 0.699212 76.4479 0.699212C76.2148 0.699212 75.9818 1.86458 75.9818 3.26301C75.9818 4.66145 75.8885 5.82682 75.7487 5.82682C75.6089 5.82682 74.257 4.52161 72.7188 2.8901L69.9685 -6.85453e-06L69.9219 4.28854Z" fill="black"/>
<path d="M118.028 0.978919C116.49 2.05105 116.723 3.35626 118.681 4.52163C119.846 5.17423 120.266 5.78022 120.172 6.43283C119.986 7.69142 119.147 7.92449 118.215 6.94559C117.282 6.01329 116.583 6.47944 117.282 7.59819C117.982 8.67033 119.986 8.85678 120.918 7.92449C122.223 6.61928 121.851 4.98777 120.033 3.91564C117.935 2.65704 117.795 1.39845 119.8 1.77137C121.384 2.09767 121.664 1.44506 120.312 0.699232C119.147 0.093242 119.287 0.093242 118.028 0.978919Z" fill="black"/>
<path d="M158.396 0.932312C157.045 1.67815 155.926 4.33518 156.392 5.82684C156.812 7.17867 158.909 8.62372 160.447 8.62372C162.079 8.62372 164.55 6.38622 164.55 4.89455C164.55 3.35627 163.338 1.39846 161.986 0.792468C160.447 0.0932495 159.935 0.0932495 158.396 0.932312ZM162.312 2.42398C164.037 4.00887 162.685 7.69143 160.354 7.69143C159.049 7.69143 157.557 6.05992 157.557 4.56825C157.557 2.00445 160.401 0.699239 162.312 2.42398Z" fill="black"/>
<path d="M184.873 1.11877C183.755 2.37736 184.081 3.54273 185.852 4.66148C186.691 5.17424 187.344 5.92007 187.391 6.3396C187.391 7.45835 185.899 7.9245 185.2 6.99221C184.92 6.52606 184.407 6.3396 184.128 6.52606C183.335 6.99221 184.967 8.62372 186.225 8.62372C186.785 8.62372 187.624 8.20419 188.09 7.69143C189.255 6.38622 188.696 4.80132 186.691 3.82242C184.687 2.84351 184.78 1.81799 186.878 1.91122C188.509 2.00445 188.789 1.44507 187.437 0.699239C186.179 0.0466349 185.806 0.0932495 184.873 1.11877Z" fill="black"/>
<path d="M194.989 1.16534C191.446 3.30961 193.078 8.85675 197.133 8.53045C198.019 8.43722 198.811 8.11092 198.951 7.78462C199.091 7.36508 198.811 7.27186 197.926 7.50493C196.061 7.97107 194.383 6.66587 194.383 4.70805C194.383 2.65701 195.735 1.39842 197.646 1.77133C199.324 2.14425 199.65 0.978886 198.019 0.51274C196.574 0.139823 196.667 0.139823 194.989 1.16534Z" fill="black"/>
<path d="M219.089 4.33515C219.089 7.64479 219.228 8.67031 219.694 8.53046C220.021 8.39062 220.3 7.31848 220.394 5.82682L220.534 3.35624L223.33 6.1065L226.081 8.81015V4.75468C226.081 1.44505 225.941 0.699212 225.381 0.699212C224.822 0.699212 224.682 1.3052 224.682 3.35624V6.05989L221.885 3.02994L219.135 -6.85453e-06L219.089 4.33515Z" fill="black"/>
<path d="M233.306 0.792442C230.462 2.33072 229.996 5.1276 232.141 7.27187C233.213 8.39062 233.865 8.67031 235.031 8.53046C236.056 8.43723 236.616 8.11093 236.709 7.55156C236.849 6.80572 236.755 6.75911 235.916 7.31848C234.378 8.25078 232.42 6.99218 232.234 4.94114C232.001 2.75025 233.259 1.44505 235.264 1.77135C237.082 2.09765 237.455 0.9789 235.777 0.512754C234.425 0.186452 234.425 0.186452 233.306 0.792442Z" fill="black"/>
<path d="M0 1.16536C0 1.39844 0.419531 1.63151 0.932292 1.63151C1.77135 1.63151 1.86458 1.95781 1.86458 5.17422C1.86458 7.78463 2.00443 8.67031 2.47057 8.53047C2.84349 8.39062 3.07656 7.13203 3.16979 4.98776C3.26302 2.42396 3.44948 1.63151 3.96224 1.63151C4.33516 1.63151 4.66146 1.39844 4.66146 1.16536C4.66146 0.885676 3.63594 0.699218 2.33073 0.699218C1.07214 0.699218 0 0.885676 0 1.16536Z" fill="black"/>
<path d="M20.9766 4.66148C20.9766 6.99221 21.163 8.62372 21.4427 8.62372C21.7224 8.62372 21.9089 7.87788 21.9089 6.99221C21.9089 4.94117 22.4216 4.94117 23.8201 6.99221C24.426 7.87788 25.2185 8.62372 25.5448 8.62372C26.3839 8.62372 26.244 8.2508 24.7057 6.29299C23.9599 5.31408 23.3073 4.42841 23.3073 4.24195C23.3073 4.1021 23.9599 3.26304 24.7523 2.33075C26.5703 0.279708 25.5448 0.139864 23.4471 2.19091L21.9089 3.68257V2.19091C21.9089 1.35184 21.7224 0.699239 21.4427 0.699239C21.163 0.699239 20.9766 2.33075 20.9766 4.66148Z" fill="black"/>
<path d="M30.9987 2.65702C31.6513 3.77577 32.1641 5.22082 32.1641 5.92004C32.1641 6.57265 32.3039 7.45832 32.4438 7.87786C32.9565 9.22968 33.5625 8.6703 33.5625 6.85233C33.5625 5.82681 34.0287 4.38176 34.7279 3.26301C36.0331 1.11874 36.1263 0.699209 35.2406 0.699209C34.9143 0.699209 34.355 1.3052 34.0287 2.09765C33.7024 2.84348 33.3294 3.49608 33.143 3.49608C32.9565 3.49608 32.4438 2.84348 32.0242 2.09765C31.5581 1.3052 30.9055 0.699209 30.5326 0.699209C30.0664 0.699209 30.2063 1.21197 30.9987 2.65702Z" fill="black"/>
<path d="M59.2006 3.63596C59.2006 7.13205 60.0396 8.62372 61.9508 8.62372C64.0485 8.62372 64.7943 7.36512 64.7943 3.82242C64.7943 2.05106 64.6079 0.699239 64.3282 0.699239C64.0485 0.699239 63.862 1.91122 63.862 3.4495C63.862 5.3607 63.6289 6.47945 63.1162 6.94559C61.4381 8.62372 60.1329 7.13205 60.1329 3.4495C60.1329 1.91122 59.9464 0.699239 59.6667 0.699239C59.387 0.699239 59.2006 2.00445 59.2006 3.63596Z" fill="black"/>
<path d="M82.0416 4.66148C82.0416 6.99221 82.2281 8.62372 82.5078 8.62372C82.7875 8.62372 82.9739 6.99221 82.9739 4.66148C82.9739 2.33075 82.7875 0.699239 82.5078 0.699239C82.2281 0.699239 82.0416 2.33075 82.0416 4.66148Z" fill="black"/>
<path d="M87.8219 1.49169C88.8474 4.28856 90.712 8.62372 90.8984 8.62372C91.0383 8.62372 91.6909 7.22528 92.3901 5.45393C94.3479 0.699239 94.3479 0.699239 93.6021 0.699239C93.2292 0.699239 92.5766 1.72476 92.1104 3.02997C91.6443 4.28856 91.0849 5.3607 90.8984 5.3607C90.712 5.3607 90.1526 4.28856 89.6865 3.02997C89.2203 1.72476 88.5677 0.699239 88.1948 0.699239C87.7753 0.699239 87.6354 0.978927 87.8219 1.49169Z" fill="black"/>
<path d="M98.45 4.52161L98.5899 8.39062H100.594C102.925 8.39062 103.484 7.50495 101.294 7.31849C100.035 7.17865 99.7552 6.94557 99.7552 6.0599C99.7552 5.17422 100.035 4.94115 101.294 4.8013C103.111 4.61484 103.111 3.72917 101.294 3.72917C100.315 3.68255 99.9417 3.44948 99.8485 2.65703C99.7086 1.77135 99.8951 1.63151 101.34 1.63151C102.272 1.63151 103.018 1.39844 103.018 1.16536C103.018 0.885677 101.946 0.699219 100.688 0.699219H98.3102L98.45 4.52161Z" fill="black"/>
<path d="M107.68 4.70808C107.68 7.69142 107.82 8.67032 108.286 8.48387C108.565 8.39064 108.845 7.73803 108.845 7.08543C108.798 5.45392 109.032 5.50053 110.57 7.3185C112.108 9.2297 112.901 8.67032 111.409 6.71251C110.477 5.36069 110.43 5.17423 111.129 4.80131C112.015 4.28855 112.108 2.05105 111.316 1.25861C110.989 0.932303 110.057 0.69923 109.218 0.69923H107.68V4.70808ZM110.477 2.09767C110.989 2.42397 111.036 2.75027 110.663 3.35626C109.824 4.7547 109.078 4.61486 109.078 3.07657C109.078 1.53829 109.358 1.35183 110.477 2.09767Z" fill="black"/>
<path d="M126.326 4.7081C126.326 7.69143 126.465 8.67034 126.932 8.53049C127.304 8.39065 127.538 7.03883 127.631 4.52164C127.724 1.35185 127.631 0.699243 127.025 0.699243C126.465 0.699243 126.326 1.39846 126.326 4.7081Z" fill="black"/>
<path d="M131.919 1.11876C131.919 1.35183 132.339 1.63152 132.898 1.77136C133.411 1.91121 133.784 2.28412 133.737 2.65704C133.691 2.98334 133.691 4.47501 133.737 5.92006C133.831 9.83568 134.716 9.27631 134.716 5.31407C134.716 2.42397 134.809 2.00443 135.648 1.77136C137.373 1.30522 136.581 0.699226 134.25 0.699226C132.991 0.699226 131.919 0.885685 131.919 1.11876Z" fill="black"/>
<path d="M141.289 3.1232C142.035 4.47502 142.641 6.29299 142.641 7.08544C142.641 7.9245 142.874 8.62372 143.107 8.62372C143.386 8.62372 143.573 7.83127 143.573 6.85236C143.573 5.87346 144.086 4.24195 144.738 3.07658C146.09 0.745854 146.09 0.699239 145.251 0.699239C144.925 0.699239 144.365 1.30523 144.039 2.09768C143.34 3.82242 143.06 3.82242 142.081 2.09768C141.662 1.30523 140.962 0.699239 140.59 0.699239C140.077 0.699239 140.263 1.30523 141.289 3.1232Z" fill="black"/>
<path d="M169.211 4.66148C169.211 6.99221 169.397 8.62372 169.677 8.62372C169.957 8.62372 170.143 7.78466 170.143 6.75913C170.143 4.98778 170.236 4.89455 171.542 4.89455C172.847 4.89455 173.593 4.00887 172.381 3.91565C172.054 3.86903 171.448 3.82242 171.076 3.7758C170.703 3.7758 170.376 3.30966 170.376 2.7969C170.376 2.14429 170.749 1.81799 171.682 1.72476C173.639 1.49169 173.173 0.699239 171.076 0.699239H169.211V4.66148Z" fill="black"/>
<path d="M203.706 4.7081C203.706 7.69143 203.846 8.67034 204.312 8.53049C204.685 8.39065 204.918 7.03883 205.011 4.52164C205.104 1.35185 205.011 0.699243 204.405 0.699243C203.846 0.699243 203.706 1.39846 203.706 4.7081Z" fill="black"/>
<path d="M210.232 4.66148V8.62372H212.329C213.868 8.62372 214.427 8.43726 214.427 7.9245C214.427 7.45835 213.914 7.22528 212.796 7.22528C211.397 7.22528 211.164 7.08544 211.164 6.10653C211.164 5.12762 211.444 4.94117 212.702 4.80132C213.495 4.70809 214.147 4.42841 214.054 4.19533C213.961 3.72919 213.681 3.68257 212.003 3.54273C211.49 3.49611 211.164 3.1232 211.164 2.56382C211.164 1.81799 211.49 1.63153 212.796 1.63153C213.681 1.63153 214.427 1.39846 214.427 1.16538C214.427 0.885697 213.495 0.699239 212.329 0.699239H210.232V4.66148Z" fill="black"/>
<path d="M241.557 4.52161L241.697 8.39062H243.701C246.032 8.39062 246.591 7.50495 244.4 7.31849C243.142 7.17865 242.862 6.99219 242.862 6.01328C242.862 5.08099 243.095 4.89453 244.26 4.89453C245.239 4.89453 245.659 4.66146 245.659 4.1487C245.659 3.63594 245.286 3.44948 244.4 3.58932C243.328 3.68255 243.049 3.54271 242.955 2.65703C242.815 1.77135 243.002 1.63151 244.447 1.63151C245.379 1.63151 246.125 1.39844 246.125 1.16536C246.125 0.885677 245.053 0.699219 243.794 0.699219H241.417L241.557 4.52161Z" fill="black"/>
<path d="M49.9708 20.2773C46.7078 27.1297 46.7078 27.2695 47.8266 27.2695C48.7122 27.2695 49.1318 26.8966 49.6911 25.638C50.3438 24.0065 50.3904 24.0065 53.3271 24.0065H56.357L56.9164 25.638C57.3826 26.85 57.8021 27.2695 58.5945 27.2695C59.2005 27.2695 59.6667 27.1297 59.6667 26.9898C59.6667 26.5237 54.0263 14.0776 53.6534 13.6115C53.4669 13.425 51.8354 16.4083 49.9708 20.2773ZM54.5391 20.1841C55.2383 22.0487 55.0984 22.2352 53.0008 22.0487L51.4159 21.9089L52.3016 19.8578C53.2339 17.6669 53.5602 17.7135 54.5391 20.1841Z" fill="black"/>
<path d="M78.3125 20.1375C78.3125 26.9432 78.3591 27.2695 79.2448 27.2695C80.1305 27.2695 80.1771 26.9432 80.1771 22.8411C80.1771 20.4172 80.3169 18.4127 80.55 18.4127C80.7365 18.4127 82.8341 20.5104 85.2115 23.0742C87.6354 25.638 89.7797 27.7357 90.0128 27.7357C90.2924 27.7357 90.3857 24.9854 90.3391 20.8367C90.1992 14.1242 90.1992 13.9844 89.1737 13.8445C88.1016 13.7047 88.1016 13.7979 88.1016 18.4594V23.214L83.207 18.1331L78.3591 13.0521L78.3125 20.1375Z" fill="black"/>
<path d="M114.392 13.7979C113.553 14.031 112.155 15.0565 111.222 16.082C109.777 17.7135 109.544 18.2263 109.544 20.324C109.544 23.4471 110.803 25.4982 113.507 26.8034C117.003 28.4815 121.012 27.0831 122.829 23.4937C125.533 18.3195 120.079 12.0732 114.392 13.7979ZM119.473 16.5482C121.245 17.9466 121.897 20.2773 121.058 22.2818C120.172 24.3794 118.634 25.4049 116.303 25.4049C114.812 25.4049 114.113 25.1253 113.18 24.0997C110.989 21.769 110.943 19.1586 113.087 16.8745C114.579 15.2896 117.655 15.1031 119.473 16.5482Z" fill="black"/>
<path d="M164.083 13.7047C160.82 14.7302 158.863 17.2474 158.863 20.4638C158.863 24.0531 161.1 26.7568 164.643 27.5026C166.647 27.9687 169.071 26.9898 169.351 25.5914C169.537 24.6591 169.397 24.4726 168.791 24.7523C167.533 25.3117 165.109 25.5448 163.85 25.2185C162.405 24.8456 160.82 22.4216 160.82 20.5104C160.82 19.0653 161.753 17.2474 163.058 16.1752C163.944 15.476 167.067 15.4294 168.325 16.082C169.071 16.5015 169.211 16.4083 169.211 15.4294C169.211 14.5903 168.838 14.1708 167.766 13.7979C166.088 13.2385 165.762 13.2385 164.083 13.7047Z" fill="black"/>
<path d="M242.256 13.9378C239.086 15.1031 237.641 17.1542 237.641 20.5104C237.641 25.2651 242.069 28.668 246.358 27.2695C247.617 26.85 247.99 26.4771 247.99 25.5914C247.99 24.6125 247.85 24.5193 247.104 24.9388C246.591 25.1719 245.333 25.405 244.26 25.405C241.417 25.405 239.599 23.4938 239.599 20.5104C239.599 17.5271 241.417 15.6159 244.26 15.6159C245.333 15.6159 246.591 15.849 247.104 16.082C247.85 16.5016 247.99 16.4083 247.99 15.4294C247.99 14.5904 247.617 14.1708 246.544 13.7979C244.727 13.1453 244.447 13.1919 242.256 13.9378Z" fill="black"/>
<path d="M0 20.5104C0 26.9432 0.0466146 27.2695 0.932292 27.2695C1.77135 27.2695 1.86458 26.9432 1.86458 24.7523C1.86458 22.1419 2.2375 21.6758 4.24193 21.6758C5.54714 21.6758 7.45833 19.6247 7.45833 18.2263C7.45833 15.243 5.68698 13.7513 2.09766 13.7513H0V20.5104ZM4.84792 16.3617C6.3862 17.8534 5.45391 19.8112 3.16979 19.8112C1.9112 19.8112 1.86458 19.718 1.86458 17.7135C1.86458 15.8023 1.95781 15.6159 2.98333 15.6159C3.63594 15.6159 4.475 15.9422 4.84792 16.3617Z" fill="black"/>
<path d="M26.1041 20.5104V27.2695H27.2695H28.4349V20.5104V13.7513H27.2695H26.1041V20.5104Z" fill="black"/>
<path d="M188.789 20.5104C188.789 26.9432 188.836 27.2695 189.721 27.2695C190.607 27.2695 190.654 26.9432 190.654 20.5104C190.654 14.0776 190.607 13.7513 189.721 13.7513C188.836 13.7513 188.789 14.0776 188.789 20.5104Z" fill="black"/>
<path d="M210.698 20.4638C210.698 26.9432 210.744 27.2695 211.63 27.2695C212.469 27.2695 212.562 26.9432 212.562 24.7057C212.562 23.3073 212.749 22.1419 212.982 22.1419C213.215 22.1419 214.194 23.3073 215.126 24.7057C216.431 26.5703 217.224 27.2695 218.016 27.2695C218.576 27.2695 219.089 27.1297 219.089 26.9432C219.089 26.8034 218.249 25.5448 217.271 24.2396L215.406 21.8156L216.804 20.7901C217.877 19.9977 218.156 19.4383 218.156 17.9932C218.156 15.1497 216.991 14.0776 213.541 13.8445L210.698 13.6581V20.4638ZM215.406 16.082C216.385 16.6414 216.571 18.4128 215.732 19.2518C215.406 19.5781 214.567 19.8112 213.868 19.8112C212.609 19.8112 212.562 19.718 212.562 17.7135C212.562 15.8956 212.702 15.6159 213.541 15.6159C214.054 15.6159 214.893 15.849 215.406 16.082Z" fill="black"/>
<path d="M267.521 17.8068C267.521 20.0909 267.474 23.1208 267.428 24.6125L267.335 27.2695H270.504C273.301 27.2695 273.674 27.1763 273.534 26.4305C273.441 25.8711 272.835 25.5914 271.39 25.4982L269.432 25.3583V19.5315C269.432 14.0776 269.386 13.7513 268.5 13.7513C267.661 13.7513 267.568 14.0776 267.521 17.8068Z" fill="black"/>
<path d="M292.273 20.5104V27.2695H296.049C299.359 27.2695 299.778 27.1763 299.639 26.4305C299.545 25.8245 298.939 25.5914 296.795 25.4982L294.138 25.3583V23.0742V20.7435H296.702C298.939 20.7435 299.266 20.6503 299.266 19.8112C299.266 18.9721 298.939 18.8789 296.702 18.8789H294.138V17.2474V15.6625L296.842 15.5227C298.846 15.4294 299.499 15.1964 299.499 14.6836C299.499 14.1242 298.706 13.9378 295.909 13.8445L292.273 13.7047V20.5104Z" fill="black"/>
</svg>
