<svg xmlns="http://www.w3.org/2000/svg" x="0px" y="0px"
width="52" height="52"
viewBox="0,0,256,256"
style="fill:#000000;">
<g fill="#ffffff" fill-rule="nonzero" stroke="none" stroke-width="1" stroke-linecap="butt" stroke-linejoin="miter" stroke-miterlimit="10" stroke-dasharray="" stroke-dashoffset="0" font-family="none" font-weight="none" font-size="none" text-anchor="none" style="mix-blend-mode: normal"><g transform="scale(4,4)"><path d="M16,8c-4.418,0 -8,3.582 -8,8v32c0,4.418 3.582,8 8,8h32c4.418,0 8,-3.582 8,-8v-32c0,-4.418 -3.582,-8 -8,-8zM32.00195,17c9.373,0 16.99805,6.11295 16.99805,13.62695c0,3.007 -1.18048,5.71677 -3.64648,8.38477h0.00195c-3.567,4.056 -11.54342,8.996 -13.35742,9.75c-1.813,0.755 -1.5447,-0.48225 -1.4707,-0.90625c0.044,-0.252 0.24219,-1.4375 0.24219,-1.4375c0.057,-0.429 0.11731,-1.09358 -0.05469,-1.51758c-0.191,-0.466 -0.94405,-0.71012 -1.49805,-0.82812c-8.169,-1.067 -14.2168,-6.70931 -14.2168,-13.44531c0,-7.514 7.62795,-13.62695 17.00195,-13.62695zM21.96875,26.66211c-0.492,0 -0.89062,0.39586 -0.89062,0.88086v6.67383c0,0.487 0.39862,0.88086 0.89063,0.88086h3.37695c0.492,0 0.89063,-0.39581 0.89063,-0.88281c0,-0.484 -0.39963,-0.87891 -0.89062,-0.87891h-2.48633v-5.79297c0,-0.486 -0.39862,-0.88086 -0.89062,-0.88086zM27.94727,26.66211c-0.492,0 -0.89062,0.39586 -0.89062,0.88086v6.67383c0,0.487 0.39863,0.88086 0.89063,0.88086c0.492,0 0.89258,-0.39586 0.89258,-0.88086v-6.67383c0,-0.485 -0.40158,-0.88086 -0.89258,-0.88086zM31.01367,26.66211c-0.096,0 -0.1912,0.01392 -0.2832,0.04492c-0.364,0.12 -0.61133,0.45694 -0.61133,0.83594v6.67383c0,0.487 0.40158,0.88086 0.89258,0.88086c0.493,0 0.89258,-0.39586 0.89258,-0.88086v-4.12891l3.46094,4.65625c0.167,0.22 0.43389,0.35352 0.71289,0.35352c0.095,0 0.1912,-0.01588 0.2832,-0.04687c0.366,-0.119 0.60938,-0.45398 0.60938,-0.83398v-6.67383c0,-0.485 -0.39963,-0.88086 -0.89062,-0.88086c-0.492,0 -0.89258,0.39586 -0.89258,0.88086v4.12891l-3.46289,-4.65625c-0.167,-0.22 -0.43294,-0.35352 -0.71094,-0.35352zM39.05859,26.66406c-0.492,0 -0.89062,0.39586 -0.89062,0.88086v0.00391v3.33203v0.00195v3.33398c0,0.487 0.40062,0.88086 0.89063,0.88086h3.37695c0.492,0 0.89258,-0.39586 0.89258,-0.88086c0,-0.485 -0.40158,-0.87891 -0.89258,-0.87891h-2.48633v-1.57617h2.48633c0.493,0 0.89258,-0.39586 0.89258,-0.88086c0,-0.487 -0.40158,-0.88086 -0.89258,-0.88086v0.00195h-2.48633v-1.57617h2.48633c0.493,0 0.89258,-0.39586 0.89258,-0.88086c0,-0.485 -0.40158,-0.88086 -0.89258,-0.88086z"></path></g></g>
</svg>